<?xml version="1.0" encoding="utf-8"?>
<!-- Generator: Adobe Illustrator 22.1.0, SVG Export Plug-In . SVG Version: 6.00 Build 0)  -->
<svg version="1.1" id="Layer_1" xmlns="http://www.w3.org/2000/svg" xmlns:xlink="http://www.w3.org/1999/xlink" x="0px" y="0px"
	 viewBox="0 0 500 500" style="enable-background:new 0 0 500 500;" xml:space="preserve">
<path d="M340.9,141.2l-32.5-0.8l-20.3,5.4c2-33-18.1-39.5-18.1-39.5c-0.7-32-14-33-14-33c7.4,8.6,4.2,16.1,4.2,16.1l-17.4-0.3
	c0,0-2.9-7.5,4.8-15.9c0,0-13.3,0.5-15,32.5c0,0-20.3,5.9-19.4,38.9l-20.2-6.1l-32.5-0.3c0,0-6.2,10.7,32.2,6l20.5,3.1
	c0,0-0.3,19.5,28.7,22.2l16.9,0.3c29-1.8,29.3-21.3,29.3-21.3l20.5-2.4C346.7,152,340.9,141.2,340.9,141.2z M238.3,141.5
	c-1.7,2.3-15.5,12.8-21.3,6c-5.7-6.8,3.4-38.3,19.1-40.4C236.2,107.1,240.1,139.2,238.3,141.5z M284.7,148.1
	c-5.7,6.8-19.6-3.5-21.3-5.8c-1.7-2.3,1.9-34.4,1.9-34.4C280.9,109.8,290.3,141.3,284.7,148.1z"/>
<path d="M250,309.6c0,0-4.5-0.1-6.8,3.2c0,0-7.9,51.8,6.7,63.8c0,0,12.3-4.4,8.5-63.9C258.5,312.8,256.7,309.5,250,309.6z"/>
<path d="M344.5,239.7c-5.7-5.8-18.8-22.3-41.5-12c0,0-8.5,2.9-19.5,3.5c-8.5,0.5-9.5,1.3-9.5,1.3s-1.3-12.3-2.7-16.3
	c0,0,26.6-5.4,32.5-5.9s21.9-2.6,25.4-13.2s21.5-35.4,27.2-40.6s23-26.4,18.1-31.9s-39.2,52.4-43.4,57.9c-4.2,5.5-11.8,24.5-48,26.9
	c0,0-7.8,0.6-14-1.4c0,0-2.3-33.9-18.6-34.2c-16.4-0.3-20.5,34.2-20.5,34.2c-6.2,2-14,1.4-14,1.4c-36.1-2.4-43.8-21.4-48-26.9
	c-4.2-5.5-38.5-63.4-43.4-57.9s12.4,26.6,18.1,31.9s23.8,30,27.2,40.6s19.5,12.8,25.4,13.2s32.5,5.9,32.5,5.9
	c-1.3,4-2.7,16.3-2.7,16.3s-1-0.9-9.5-1.3c-11-0.6-19.5-3.5-19.5-3.5c-22.7-10.3-35.8,6.2-41.5,12c-5.7,5.8-69.7,40.3-60.8,42.7
	s33.8-14.3,54.5-33s30.7-19,54.8-16.5c24.2,2.5,21.9,8.8,21.9,8.8c-0.4,24.7,17.1,39,7.6,37.7s-49.7,4.3-53,6.1
	c-3.3,1.8-5.8,5.4-12.5,18.2c-6.7,12.8-62,66.5-51.3,70.4c10.7,3.8,51.8-68.7,66.5-79.3c14.7-10.7,32-9.2,32-9.2s26.5-0.2,25.7,3.3
	c-0.8,3.5-25.3,0.3-27.2,56s30.2,62.2,30.2,62.2s2.5,1.3,4.2,8c0,0,2.1-8,8.9-8c0,0,32-6.5,30.2-62.2c-1.8-55.7-26.3-52.5-27.2-56
	c-0.8-3.5,25.7-3.3,25.7-3.3s17.3-1.5,32,9.2c14.7,10.7,55.8,83.2,66.5,79.3c10.7-3.8-44.7-57.5-51.3-70.4
	c-6.7-12.8-9.2-16.5-12.5-18.2c-3.3-1.8-43.5-7.4-53-6.1s8-13,7.6-37.7c0,0-2.2-6.3,21.9-8.8s34.2-2.2,54.8,16.5
	c20.7,18.7,45.7,35.3,54.5,33C414.2,280,350.2,245.5,344.5,239.7z M269.6,313.4c0,0-7.9,15-6.1,39.2s12,27,12,27
	c-30.5,37.2-50.2,0-50.2,0s10.2-2.8,12-27s-6.1-39.2-6.1-39.2S247.7,291.5,269.6,313.4z M258.5,277.2c0,0,2.8-43-7.5-49h-0.8
	c-10.2,6-7.5,49-7.5,49s-11.8-13.2-2.8-38s6-53.5,6-53.5c-5.5-4,0.8-6.5,4-6.5h1.2c3.2,0,9.5,2.5,4,6.5c0,0-3,28.8,6,53.5
	S258.5,277.2,258.5,277.2z"/>
</svg>
