<?xml version="1.0" encoding="utf-8"?>
<!-- Generator: Adobe Illustrator 22.1.0, SVG Export Plug-In . SVG Version: 6.00 Build 0)  -->
<svg version="1.1" id="Layer_1" xmlns="http://www.w3.org/2000/svg" xmlns:xlink="http://www.w3.org/1999/xlink" x="0px" y="0px"
	 viewBox="0 0 500 500" style="enable-background:new 0 0 500 500;" xml:space="preserve">
<path d="M422,167.7c-14.7-14.7-45,1.3-52,5c-6.2,3.3-68.5,64-82,77.2c-1.7-3.6-3.7-6.7-5.6-9.4c1.5-3.2,4.7-9.4,9.3-14.5
	c6.3-7,5-14.7,5-14.7c10.7-7.2,9.8-34.7,11.7-37.7c1.8-3,14.7-12.2,14.7-12.2c-1.8-0.3-1.7-1.8-4.7-1.8s-5.5,1.5-9.8,4.2
	s-4.7,8.5-4.7,8.5c-1.8,0.7-2.7,8.2-2.7,11s-1,4.7-1,4.7c-11.8,11.8-7.8,21.5-7.8,21.5C281.7,219,279,233,279,233s0,0-3.6-0.7
	c-0.5-0.5-0.9-0.8-0.9-0.8s3.6-15.2-10.4-21.9c0.8-1.4,1.3-2.8,1.7-4.2c0.6-2.2,1.1-4.4,1.6-6.6c1-4.4,1.6-8.8,4-12.1
	c0.6-0.8,1.4-1.6,2.2-2.4c0.8-0.8,1.7-1.5,2.5-2.3c1.6-1.6,2.9-3.5,4.3-5.4c1.3-1.9,2.6-3.8,3.8-5.8c0.6-1,1.2-2,1.7-3.1
	c0.3-0.5,0.5-1.1,0.7-1.7c0.1-0.3,0.2-0.6,0.3-0.9c0.1-0.3,0.2-0.6,0.1-1.1c0-0.1-0.1-0.2-0.2-0.3c-0.2-0.2-0.5-0.1-0.6,0.1
	L286,164c-0.2,0.2-0.6,0.7-1,1.1l-1.2,1.2l-2.5,2.3c-1.7,1.6-3.3,3.1-5,4.7c-1.6,1.6-3.3,3.2-4.6,5.1c-0.7,0.9-1.3,1.9-1.9,2.9
	c-0.6,1-1.3,1.9-2,3.1c-1.4,2.1-2.4,4.4-3.3,6.6c-0.9,2.3-1.6,4.5-2.2,6.7c-0.6,2.3-1,4.5-1.3,6.8c-0.1,1.3-0.2,2.6,0,3.9
	c-3.6-1.2-8-1.9-13.5-1.9c-3.5,0-6.6,0.3-9.3,0.8c0-1,0-1.9-0.1-2.8c-0.3-2.3-0.7-4.6-1.3-6.8c-0.6-2.3-1.3-4.5-2.2-6.7
	c-0.9-2.2-1.9-4.6-3.3-6.6c-0.7-1.1-1.4-2-2-3.1c-0.6-1-1.2-2-1.9-2.9c-1.3-1.9-3-3.4-4.6-5.1c-1.6-1.6-3.3-3.1-5-4.7l-2.5-2.3
	l-1.2-1.2c-0.4-0.4-0.8-0.8-1-1.1l-0.2-0.2c-0.1-0.1-0.2-0.2-0.3-0.2c-0.2,0-0.5,0.2-0.5,0.4c0,0.5,0.1,0.8,0.1,1.1
	c0.1,0.3,0.2,0.6,0.3,0.9c0.2,0.6,0.5,1.1,0.7,1.7c0.5,1.1,1.1,2.1,1.7,3.1c1.2,2,2.5,4,3.8,5.8c1.4,1.9,2.6,3.8,4.3,5.4
	c0.8,0.8,1.7,1.6,2.5,2.3c0.8,0.8,1.6,1.6,2.2,2.4c2.4,3.4,3.1,7.8,4,12.1c0.4,2.2,1,4.4,1.6,6.6c0.3,1,0.6,1.9,1.1,2.9
	c-17.5,5.7-11.9,23.2-11.9,23.2s-0.5,0.5-1.3,1.4c-5.2,1-5.2,1-5.2,1s-2.7-14-13.3-23.5c0,0,4-9.7-7.8-21.5c0,0-1-1.8-1-4.7
	c0-2.8-0.8-10.3-2.7-11c0,0-0.3-5.8-4.7-8.5c-4.3-2.7-6.8-4.2-9.8-4.2s-2.8,1.5-4.7,1.8c0,0,12.8,9.2,14.7,12.2s1,30.5,11.7,37.7
	c0,0-1.3,7.7,5,14.7c6.3,7,10.1,16.4,10.2,16.5c-1,1.7-2.1,3.7-3,5.7c-12.8-12.5-76-74.2-82.3-77.5c-7-3.7-37.3-19.7-52-5
	c-14.7,14.7,13.3,49.3,22,55c0,0-10,2.7,1,18.7s15.3,20.7,24,24.3c8.7,3.7,27.7,3.7,27.7,3.7s-9.7,12,7.7,17.7
	c12.8,4.2,36.4-0.6,47.7-3.3c0.2,1,0.5,1.9,0.7,2.9c-8.3,4.2-23.9,14.3-26.6,16.4c-3.3,2.7-7,10.7-7,10.7
	c-16.9,4.1-35,36.3-35,36.3s0,0-3.7,1.3c-3.7,1.3-18.7,5-18.7,5c15.3,13,26-2.8,26-2.8c6.3,0.9,14.7-15.6,14.7-15.6
	c13.3-5.3,20-21,20-21s2,0,6-1.7s14.7-13,19.1-16s7.5-1.7,7.5-1.7l1.2-3.6c13.7,17.3,59.8,18.3,75.3,0.4l1.4,4.2
	c0,0,3.1-1.3,7.5,1.7s15.1,14.3,19.1,16c4,1.7,6,1.7,6,1.7s6.7,15.7,20,21c0,0,8.3,16.4,14.7,15.6c0,0,10.7,15.8,26,2.8
	c0,0-15-3.7-18.7-5c-3.7-1.3-3.7-1.3-3.7-1.3s-18.1-32.2-35-36.3c0,0-3.7-8-7-10.7c-2.6-2.1-18.1-12-26.4-16.3
	c0.4-1.1,0.8-2.1,1.1-3.2c10.9,2.7,35.5,7.9,48.7,3.6c17.3-5.7,7.7-17.7,7.7-17.7s19,0,27.7-3.7c8.7-3.7,13-8.3,24-24.3
	s1-18.7,1-18.7C408.7,217,436.7,182.3,422,167.7z M139.8,237.7c25.3,14.3,62,26,62,26C168.8,263.3,139.8,237.7,139.8,237.7z
	 M284.7,262c-2.3,1.7-16.4-10-35.7-10s-31.3,12.7-35.6,10.2c-4.3-2.5,0-10.8,4-15.5c4-4.7,13-13,29.7-13c18.3,0,25.7,7.3,31.3,12.7
	C284,251.7,287,260.3,284.7,262z M296.3,264.7c0,0,36.7-11.7,62-26C358.3,238.7,329.3,264.3,296.3,264.7z"/>
<path d="M324.1,397.9c-4.4-6-8.7-5.9-8.7-5.9c-2.5-50.3-12.6-51.5-12.6-51.5s1.9-7.7-2.1-13c-2.5-3.2-5.8-9.8-8.1-14.5
	c-1.6-4.1-2.9-6.5-2.9-6.5c-1.3,8.4-19,19.2-39.7,19.2c-26.7,0-43-19.2-43-19.2s-6.3,14.6-10.3,19.9s-2,13-2,13s-10,1.3-12,51.7
	c0,0-4.3,0-8.7,6s-0.7,4.3-7.7,7.7c0,0,11.3,5.3,17.7-4.3c0,0,3-5.3,2.7-7.3c-0.3-2,3-1.3,2.7-15c-0.3-13.7,4.7-9.3,6.7-19.3
	s1.3-17,1.3-17s1.7-2.2,3-2.3c-0.1,8.5,1,17.8,4.7,26.9c11.7,28.7,33.3,32.3,45,32.3s33.3-8,44.7-35c3.1-7.5,4.1-15.2,4-22.4
	c0.8,0.7,1.5,1.6,1.5,1.6s-0.6,7,1.5,17c2.1,10,7.1,5.6,6.9,19.3c-0.2,13.7,3.1,13,2.8,15c-0.3,2,2.7,7.3,2.7,7.3
	c6.4,9.6,17.7,4.1,17.7,4.1C324.8,402.2,328.5,403.8,324.1,397.9z M291,360c0,0-12.7,22.3-41,22.3s-40.3-25-40.3-25s-6.9-10-2-36
	c0,0,1.3,26.3,20.3,26.3s21.5-7.7,21.5-7.7s4.9,8,21.2,8c16.3,0,19-26.7,19-26.7S298.1,338.7,291,360z"/>
</svg>
