<?xml version="1.0" encoding="utf-8"?>
<!-- Generator: Adobe Illustrator 22.1.0, SVG Export Plug-In . SVG Version: 6.00 Build 0)  -->
<svg version="1.1" id="Layer_1" xmlns="http://www.w3.org/2000/svg" xmlns:xlink="http://www.w3.org/1999/xlink" x="0px" y="0px"
	 viewBox="0 0 500 500" style="enable-background:new 0 0 500 500;" xml:space="preserve">
<path d="M367,340.4l6.7,6.3l-1.7-12.3l-5-0.7l-17.7-57.3h-9.2l3.5-4.3l-13.7-8.7l-3,6.3l-26.3,0.3c-4.9-9.3-9-15.6-9-15.6l13.7-9.7
	c0,0-0.7-7-1-11c-0.3-4,3-2.3,3-2.3l12,4.7l3.7-26l-6.3,0.7c0,0,0.3-21.3-3.7-27.3s-4.3-19.7-4.3-19.7c-5,9-3.3,20.7-3.3,20.7
	c-8.7,3-0.7,5.7-0.7,5.7s2,19.7-2.7,22.3s-3.3,11.7-3.3,11.7l-20.3,13.7c0,0-2.3-9.7,2-16c4.3-6.3-7-8.7-7-8.7l-4.7-8.7l11.3-2l-7-6
	l43.7-71.3c-28.3-14.7-41-58-41-58c-12.3,26.3-32,29-32,29s12.7,10.3,12.7,13.3s-8.7,14-6.3,15.3c2.3,1.3,16.7-8.3,20-7.7
	c3.3,0.7,4.7,7.7,4.7,7.7l-14,15h8c0,0,5.7-6.3,8.7-3c3,3.3,0,6.3,0,6.3l-14,18l-1.7-7.7l-9,7.7v-12.3l-4.7-2.3l-2,12l-1.3-9.7h-5
	l-7.3,5.7V146l-5.3,0.3l-7.7,6l-14.2-15.7L223,143l-11-12l2.7-6h6.7l8.3,4.3l-10-17.3l21.3-3.7l7-3.7L218.3,84l-3-11l-2,10.3
	c0,0-29.3,23.7-33.3,28.6s-9,4.4-9,4.4s-6.7-7.3-8.3-3c-1.7,4.3,3,6,3,6l-1.3,6.3l9.3-3.3c0,0,13.3,27,20,40.3
	c6.7,13.3,14.7,19.7,14.7,19.7l-8,1c0,0,11,13.7,7,16.7c-7.2,5.4,0.7,17.3,0.7,17.3l-9.3-1.3l8.7,20.3l-6.3,2.3c0,0,0,0-5-5
	s-8.3,0.7-8.3,0.7l-6.7-4l4-26.3l-5-0.3v-9.3c2,1.3,11.7,0.3,11.7,0.3c-5-4.7-2.3-26.7-4-27.7c-1.7-1-13,20.7-17,29.3
	s4.3,11.3-2.3,22c-16.1,25.8,9,19.3,9,19.3c-2.7,6.3-0.7,13.7,8.7,21.3c9.3,7.7,8.3,11,8.3,11s-2.7,2.8-6.1,8.3l-9.9-10.7l-4,8.7
	l-18.7,6.7c0,0-17.7,45-27.7,55.7l4,7.3l7.7-3.3c0,0,0.3-7.7,7-8.3L146,326l8.7-13c0,0,1.7,4.7,6,6.7l8-25c0,0,0.7-4.3,5.7-3.3
	c1.9,0.4,3.8,2.3,5.5,4.6c-3.4,9.8-6.1,22.3-5.9,37.4l-14.6,14.3V362l-5-9v6l-11.3-0.3l3.7,37l5.7,1.7c0,0,15,23,16,28.7
	c0,0-3.3,1-2.7,9c0,0,18.3-12-0.7-43v-26c0,0,5.6-4.5,11.6-7.2c0,0.1,0,0.1,0,0.2c12.7,64.1,66,69.7,66,69.7
	c2.7-1.7,4.7-8.7,4.7-8.7l2.6-76.3c0,0,3.7,83.7,11.4,81.7c44-11.5,54.6-49.4,56.5-79.3l13.5-1v15.7l7,1.3l-0.3,20.7c0,0,2-1.7,8,4
	c8.7,8.3,21,9.3,21,9.3s-13.7-14.3-19-46.3c-4-24.3-21.9-29-30.3-29.8c0-0.3,0-0.6,0-0.8c-0.5-8-3-17-6.3-25.6l11.6-3.7v-10.3
	l9.7,10l9.7-3.3v26.3l21.3,23v8.3L367,340.4z M214,203.3l48,3.3l5.3,8.7H214C214,215.3,211,207.3,214,203.3z M271.7,241.3
	c-14-6.3-59,0-59,0l2-10.7c12.9,7.3,57-2,57-2C269.7,233,271.7,241.3,271.7,241.3z"/>
</svg>
