<?xml version="1.0" encoding="utf-8"?>
<!-- Generator: Adobe Illustrator 22.1.0, SVG Export Plug-In . SVG Version: 6.00 Build 0)  -->
<svg version="1.1" id="Layer_1" xmlns="http://www.w3.org/2000/svg" xmlns:xlink="http://www.w3.org/1999/xlink" x="0px" y="0px"
	 viewBox="0 0 500 500" style="enable-background:new 0 0 500 500;" xml:space="preserve">
<path d="M345.7,383c-7-1-6.3-7.2-6.3-7.2c4.7-27.6-14.8-140.9-14.8-140.9s7.7-22.2,2-26.5s-6.5-1.7-6.5-1.7c0,2.2-3.8,11.2-3.8,11.2
	c-8.1,1.1-20.5,12.7-25.2,21.3c-1.5-17-3.3-34.7-5-50.4c3-1.7,9.3-4.9,19-8.5c14-5.2,15.8-11.5,15.8-11.5s10.7,20,12.2,27.8
	c1.5,7.8-1.8,6-1.2,11c0.7,5,10.7,5,10.7,5s0.8,8.3,3.3,9.5c2.5,1.2,8-7.2,7.2-9.2s-10.2-3.5-10.2-3.5c3.2-9.8-18.7-42.2-18.7-42.2
	c1.8-9-3.5-8.3-7.8-5.1c-4,3-25.7,8-32,11.5c-0.9-8.3-1.8-15.6-2.6-21.5c3.1-0.2,9.1,2.5,14.5,3.1c5.8,0.6,14.2,0.9,14.5,1.4
	c0.3,0.5,6,3,7.2,1.7c1.2-1.3-0.3-3-0.3-3s0.2-11.5,4.5-21.8s5.2-29.5,5.2-29.5c6.2,1.7,8.3-4.7,7-5c-1.3-0.3-5.2-4.8-7.2-4.2
	c-2,0.7-1,6-1,6c-12.8,5.5-10.8,12-10.8,12c8.7,8.7-3.7,36.7-3.7,36.7c-4.7-4.5-31.8-10.3-31.8-10.3l-4.2-3.5
	c0,0,2.9-23.4-14.1-29.5c1.9-10,7.2-15.4,16.6-16.8c8.7-1.3,23.6,10.2,28.6,14.8c1.2,1.1,3.1,1,4.2-0.2c1.1-1.2,1-3.1-0.2-4.2
	c-0.2-0.2-5-4.5-11.4-8.7c-8.9-5.8-16.4-8.4-22.1-7.6c-11.9,1.7-19.2,8.9-21.6,21.4c-1.1-0.1-2.2-0.2-3.3-0.2
	c-2.9,0-5.5,0.4-7.8,1.1c-2.4-7.4-8.5-21.2-20.1-22.4c-14.5-1.5-34.5,13.3-35.3,14c-1.3,1-1.6,2.9-0.6,4.2c1,1.3,2.9,1.6,4.2,0.6
	c5.2-3.9,21-13.8,31.2-12.8c7.8,0.8,13,11.9,15.2,18.9c-13.1,8.4-11.9,28.7-11.9,28.7l-2.7,2.2c0,0-22.2,8.3-36.6,18.3
	c0,0-12.7-25.8-11.4-30.8c1.3-4.9,2.3-11.6-7.3-16.2c0,0-3.7-10.7-6.3-6.7c-2.7,4,1.3,0.4-2.7,4c-4,3.6,6.8,5.3,6.8,5.3
	s-4.2,3.8,13.5,40.8l2.2,6.1c0,0-3,2.1-1.5,5.1s8.7-2.3,10.7-2.9c2-0.6,26.1,0.8,29.5-4.4v0c-1.1,6.7-2.3,14.8-3.6,23.9
	c-9.5-6.4-34.6-11.4-34.6-11.4s-10.5-4-7.2,4c0,0-18,36.2-13,45c0,0-8.2,0.5-8.8,2.9c-0.5,2.4,2.2,7.9,5.1,7.6s1.1-6.5,4.1-7.6
	c3-1.1,8.8-1.4,9.2-5.1s0-32.8,5.2-39.8c0,0,13.9,10.8,38.2,16.3c-1.9,14.6-3.8,31-5.2,47.5c-7.8-11.3-24.3-13.9-26.3-20
	c0,0-0.2-9.8-3.8-9.8s-5.2,3.2-2.8,15.2c0,0,1.8,9.5,0.8,18.5s-18.8,93.5-14.2,137.5c0,0-0.8,3.8-4.8,7.2s-6.2,7,0,24.8
	s2-16.2,5-20.8s13.2-14.5,9.2-46.5s7.8-103.8,7.8-103.8s11.2,24.1,26.9,38.7c-0.3,28.6,2.4,52.8,11,62.8c0,0,9.3,50.7,30.3,53.3
	s29.7-40.7,32.4-50.7c0,0,12.7-10.7,13.3-36.7c0.2-6.2-0.5-18.3-1.5-33.3c14.9-12.8,23.9-40.4,23.9-40.4s3-0.3,5.3,5.7
	c2.3,6,5.3,114,6.7,125.7c1.3,11.7,13,18.3,11.7,29.8c-1.3,11.5,1.3,12.9,4,11.2C348.3,408,352.7,384,345.7,383z M280.5,166.5
	c0,0,2.8,15.5-5.2,25c0,0-6,3.5-20.8,2c0,0-1-14.5,2.5-16.5C257,177,269.8,179.5,280.5,166.5z M245,166.4c0.5-8.3,5.8-22.7,5.8-22.7
	c1.1,6.2,8.4,22.7,8.4,22.7C246.4,165.6,245.1,166.2,245,166.4z M250,189.8c0,0-14.6,10.6-23-2.5c-8.3-13.1-5.5-20.5-4.8-20.8
	s9.8,11.8,25.2,10.8L250,189.8z M277.5,142.5c0,0-0.2,14.2-1.8,17.8s-13.5,0-13.5,0l-3-10.2c-3-6.2-1-12.2,6.2-10.5
	S277.5,142.5,277.5,142.5z M252.1,121.5c1.6-0.2,11.6,7.2,11.9,9.2s-9.6,8.8-9.6,8.8s-11.1-1.5-14.6-4.8
	C237,132.2,250.5,121.8,252.1,121.5z M245,140.8c0,0-0.5,12-3.2,20c0,0-7.8,4.2-17.8-2.2l1-12C225,146.5,234.7,138.5,245,140.8z
	 M251.2,375.8c-11.9,0-21.5-3.8-21.5-8.5c0-4.7,9.6-8.5,21.5-8.5s21.5,3.8,21.5,8.5C272.8,371.9,263.1,375.8,251.2,375.8z
	 M278,345.5c-5.2,3.5-17.2,7.8-25.8,7.8s-25.6-0.7-30.7-12c-4.2-9.5,4-7.7,8.2-5.5c4.6,2.4,13,3,13,3l7.2-145.2l8.8,145.2
	c0,0,4,2.8,14-2.8S283.2,342,278,345.5z"/>
</svg>
