<?xml version="1.0" encoding="utf-8"?>
<!-- Generator: Adobe Illustrator 22.1.0, SVG Export Plug-In . SVG Version: 6.00 Build 0)  -->
<svg version="1.1" id="Layer_1" xmlns="http://www.w3.org/2000/svg" xmlns:xlink="http://www.w3.org/1999/xlink" x="0px" y="0px"
	 viewBox="0 0 500 500" style="enable-background:new 0 0 500 500;" xml:space="preserve">
<path d="M238.9,262.6c-20.4-8.7-20.7-25.8-13.2-35.1l0,0c0,0,0,0,0,0c0.4-0.5,0.9-1,1.3-1.5c3.7-4.6,0.4-6.6-1.8-7.3
	c-0.5-0.1-1-0.3-1.5-0.4c-0.1,0-0.1,0-0.1,0v0c-15-3.9-27.2-10.6-36-16.8c-3.9,3.1-8.2,6.9-12.3,11.4l-10.7-1.7
	c0,0-11.1,2.6-17,11.5c0,0-3.8-7-8.8-7.5c0,0-7.2-10.6-12.9-8.9c0,0-2.9-2.4-1.8-4s4.9-2.2,2.9-6.4s-14.9,0.8-3.1,11.2
	c0,0,0.9,9.1,9.8,13.1c0,0,3.5,8.8,12.4,8.2l6.1,6.4c0,0,7.5-12.9,11.1-14.5l2,5.3c-8,12.3-13.9,28.2-13.9,48.1
	c0,28,5,48.1,10.3,61.5l-6.1,3.4v23.8l4.9,2.4c0,0-16.4-0.1-14.1,7c0,0-9.5-1.8-11.6,6.1c0,0-5.8-1.9-7-6.5s-3.1,9.9-3.1,9.9
	s9.5,3.9,18.6-1.6c5-3,4.5-4.2,4.5-4.2s10.6,3,15.4-8.6c0,0,5.6-0.4,6.9-3.9l-8.4-14.9c0,0,3.4-0.8,6.6,0.7c3.4,5.7,5.9,8.3,5.9,8.3
	c-0.7-4.3,9-7,9-7c13.7,4.7,11.3,17.7,11.3,17.7c7.3,9-10,10.3-10,10.3c10.7,20.3,34.7,26.7,42.3,26.7c7.7,0,13-4,13-4s0,0,0-7.7
	c0-7.7,5.3-7,5.3-7V263.9C241.4,263.4,238.9,262.6,238.9,262.6z M181.7,276.3c-16,2.7-17.2-10.8-17.2-10.8c-8.3-5,3.2-19.7,5.2-20.2
	c0,0,13,0.5,15,9C188,268.6,181.7,276.3,181.7,276.3z M221.7,325.3c-12.2,8.5-16-6.3-16-6.3c-7.5,0-11.4-17.4-2.2-24.2
	c4.5-3.3,22.7,2.8,20.8,21C224.3,315.8,233.8,316.8,221.7,325.3z"/>
<path d="M372.4,195.8c-2,4.1,1.8,4.8,2.9,6.4s-1.8,4-1.8,4c-5.6-1.8-12.9,8.9-12.9,8.9c-5,0.5-8.8,7.5-8.8,7.5
	c-5.9-8.9-17-11.5-17-11.5l-10.3,1.7c-4-4.3-8.1-8-11.9-11c-8.8,6.1-20.9,12.7-35.9,16.6v0c0,0-0.1,0-0.4,0.1
	c-0.4,0.1-0.7,0.2-1.1,0.3c-2.2,0.7-5.9,2.7-1.8,7.6c0.2,0.2,0.5,0.5,0.7,0.8c0.1,0.2,0.3,0.3,0.4,0.5l0,0
	c7.5,9.4,7.2,26.5-13.2,35.1c-0.3,0.1-0.7,0.3-1,0.4c-0.2,0.1-0.4,0.1-0.6,0.2c-0.2,0.1-0.3,0.1-0.5,0.2c-0.2,0.1-0.4,0.1-0.6,0.2
	c-1.3,0.3-2.5,0.6-3.8,0.7V386c0,0,5.3-0.7,5.3,7c0,7.7,0,7.7,0,7.7s5.3,4,13,4c7.7,0,31.7-6.3,42.3-26.7c0,0-17.3-1.3-10-10.3
	c0,0-2.3-13,11.3-17.7c0,0,9.7,2.7,9,7c0,0,2.6-2.7,6-8.6c3.1-1.1,6.1-0.4,6.1-0.4l-8.4,14.9c1.2,3.5,6.9,3.9,6.9,3.9
	c4.8,11.6,15.4,8.6,15.4,8.6s-0.5,1.2,4.5,4.2c9.2,5.5,18.6,1.6,18.6,1.6s-1.9-14.5-3.1-9.9s-7,6.5-7,6.5
	c-2.1-7.9-11.6-6.1-11.6-6.1c2.2-7.1-14.1-7-14.1-7l4.9-2.4v-23.8l-5.8-3.2c5.3-13.4,10.4-33.6,10.4-61.7c0-20.1-6.1-36.1-14.2-48.5
	l1.9-4.9c3.6,1.6,11.1,14.5,11.1,14.5l6.1-6.4c8.9,0.5,12.4-8.2,12.4-8.2c8.9-4,9.8-13.1,9.8-13.1
	C387.3,196.5,374.4,191.6,372.4,195.8z M293.7,319c0,0-3.8,14.8-16,6.3c-12.2-8.5-2.7-9.5-2.7-9.5c-1.8-18.2,16.3-24.3,20.8-21
	C305.1,301.6,301.2,319,293.7,319z M334.9,265.5c0,0-1.2,13.5-17.2,10.8c0,0-6.4-7.8-3-22c2-8.5,15-9,15-9
	C331.7,245.8,343.2,260.5,334.9,265.5z"/>
<path d="M369,123.3l-7.7,8.3l-2.3-8.3h-4.7l-1.3,3c0,0-21.7,0.7-24.7,12S322,177,322,177l-13-4.3c0,0-0.6-16.5-15.7-29.7
	c-5.3-4.7-11.7,2.3-11.7,2.3s0.8-5.7-1.3-12.6c0-0.1,0-0.2,0-0.3c-0.2-0.6-0.1-1.9,0.5-3.4c0.6-1.5,1.4-3.1,2.4-4.6
	c1-1.6,2.2-3.1,3.5-4.5c1.3-1.4,2.7-2.8,4.1-4.3c1.4-1.5,2.7-3,4-4.7c1.2-1.7,2.5-3.5,3.5-5.5c1.1-2,2.3-4.1,2.7-6.3
	c0.2-2.2,0.5-4.4-3.1-6.2c-0.3-0.2-0.7-0.1-1,0l0,0c-3.4,2.1-3,3.8-3.1,5.6c0,1.7,0.5,3.5,0.1,5.1c-0.9,3.3-4,5.9-6.5,8.6
	c-1.3,1.4-2.7,2.7-4.2,4.1l-4.6,4c-1.4,1.3-2.8,2.6-4.1,4.3l-14.2-7.4c-10-4.5-10.3-4.5-19.6,0c-4.8,2.5-10.2,5.4-13.2,7.1
	c-1.5-1.8-3.2-3.2-4.8-4.5l-4.8-3.8c-1.6-1.2-3-2.5-4.5-3.8c-2.7-2.6-6-5-7-8.2c-0.5-1.6-0.1-3.4-0.2-5.1c-0.2-1.7,0-3.4-3.5-5.4
	l0,0c-0.3-0.2-0.7-0.2-1,0c-3.5,2-3,4.2-2.7,6.4c0.5,2.2,1.9,4.3,3.1,6.2c1.2,1.9,2.5,3.7,3.9,5.3c1.4,1.6,2.7,3,4.2,4.4
	c1.5,1.4,3,2.6,4.4,4c1.4,1.4,2.7,2.8,3.8,4.3c1.1,1.5,2,3.1,2.7,4.5c0.4,0.9,0.6,1.7,0.7,2.4c-1.2,3.1-2.3,7.9-2.3,15
	c0,0-8-6.7-13-2.7s-15,18.3-16,30.3l-13.3,2.7c0,0-3.6-27.4-7.3-40C167,127.3,147,126,147,126l-2-3.7h-3.7l-4,9l-6-7.7l-3,9
	c0,0,7.7,7,18,7.3l2-3.3c0,0,8-2.7,15.3,4.3l-4,2c0,0,2.7,24.7,10.7,34c0,0,27.2,32.8,74.3,35.2c1.8,3.4-0.1,9.1-7.9,11.8
	c-11.3,4-16.8,24,4.3,33c0,0,1.9,0.6,4.6,1c0.7-1.9,2.5-3.3,4.7-3.3c2.2,0,4,1.4,4.7,3.4c1.4-0.2,2.8-0.6,4.2-1.2
	c21.1-8.9,15.6-29,4.3-33c-7.8-2.8-9.8-8.4-7.9-11.8c47-2.4,74.2-34.5,74.2-34.5c10.7-13.3,9.3-34.7,9.3-34.7l-3-3
	c0,0,6-2.7,15.3-2.7l2.3,3.7c0,0,8.7-2.3,18-9.3L369,123.3z M221.1,166.3c-0.3,6.7-25,3.7-25,3.7s5.9-21.3,13.3-23c3.5-0.8,8,4,8,4
	s-2.3,3.3,10.7,2.3C228.1,153.3,221.4,159.7,221.1,166.3z M239.3,128.8c-1.7,2-4.2,2.6-5.7,1.3c-1.5-1.2-1.3-3.9,0.3-5.8
	c1.7-2,4.2-2.6,5.7-1.3C241.1,124.3,241,126.9,239.3,128.8z M265.7,130.2c-1.5,1.2-4,0.6-5.7-1.4c-1.6-2-1.8-4.6-0.3-5.8
	c1.5-1.2,4-0.6,5.7,1.4C267.1,126.3,267.2,129,265.7,130.2z M278.5,166.3c-0.3-6.7-7-13-7-13c13,1,10.7-2.3,10.7-2.3s4.5-4.8,8-4
	c7.5,1.7,13.3,23,13.3,23S278.9,173,278.5,166.3z"/>
</svg>
