<?xml version="1.0" encoding="utf-8"?>
<!-- Generator: Adobe Illustrator 22.1.0, SVG Export Plug-In . SVG Version: 6.00 Build 0)  -->
<svg version="1.1" id="Layer_1" xmlns="http://www.w3.org/2000/svg" xmlns:xlink="http://www.w3.org/1999/xlink" x="0px" y="0px"
	 viewBox="0 0 500 500" style="enable-background:new 0 0 500 500;" xml:space="preserve">
<path d="M304,277.2c-4.1,0-6.6,1.1-10.3,2.8c-7.4,3.3-17.5,7.9-46.3,7.9c-29.8,0-43.8-5.4-52.1-8.6c-3.7-1.4-6.2-2.4-8.3-2.2
	c-4.3,0.4-7.8,5-9.6,8.2c0,3.3,0,6.4,0,9.2c6.3-0.4,18.1-0.4,27,4.2c11.4,5.8,21.8,7.7,43,7.7c20.1,0,35.1-4.8,46-8.2
	c6.7-2.1,11.9-3.8,16.3-3.8c2.3,0,4.5,0.2,6.7,0.4c-0.1-3.7-0.2-7.8-0.3-12.1C312.6,279.7,308.4,277.2,304,277.2z"/>
<path d="M315.4,242.7c-4.2-5.5-8.5-10.7-10.1-11.8c-1.8-0.2-8.7,0.9-14.9,1.8c-12.1,1.8-28.6,4.3-43.5,4.3c-14,0-29.9-2.2-42.6-3.9
	c-7.7-1.1-16.3-2.2-18.3-1.9c-1.6,1-5.1,6.6-8.1,12.3c-0.1,3.6-0.2,8.4-0.3,12.2c2.4-1.7,5.2-4.3,7.6-4.9c2.4-0.6,6.3,0.2,14.7,1.9
	c11.2,2.4,28.1,6,47,6c17.2,0,31.9-3.4,42.7-5.9c8.9-2,14.7-3.4,18.4-2.1c2.4,0.8,5,3.2,7.5,4.6c0-0.5,0-2,0-2.4
	C315.5,250.3,315.5,246.8,315.4,242.7z"/>
<path d="M284.3,355.7c-32.4,3-38.9,3-69.6-0.5c-16.3-1.9-24.5,0.9-28.4,3.4c2.2,5.3,5.9,10.9,9.3,14.3c0.1,0.1,0.1,0.1,0.2,0.2
	c3.3-3.1,8.2-8.9,13.7-8.7c2.7,0.1,5.4,1.2,8.9,2.5c6.3,2.5,15,5.9,29,5.7c12.1-0.1,18.6-3,23.9-5.3c4.3-1.9,8.1-3.5,13-3
	c5,0.5,9.5,4.6,14,7.9c2.6-5.4,5.8-11,7.6-15C300.4,355.8,293.3,354.9,284.3,355.7z"/>
<path d="M261,401.1c1.9-0.5,3.8-1.1,5.6-1.7c0.6-0.2,0.9-0.9,0.8-1.5c-0.5-1.7-1-3.4-1.5-4.9c-0.3-0.8-1.3-0.9-1.8-0.2
	c-1.2,1.8-2.7,4.2-4.2,6.8C259.4,400.3,260.1,401.3,261,401.1z"/>
<path d="M228,398.8c2,0.9,4,1.7,6.1,2.3c1,0.3,1.8-0.8,1.3-1.7c-1.8-3-3.5-5.8-4.8-7.6c-0.4-0.5-1.2-0.4-1.5,0.2
	c-0.6,1.5-1.2,3.4-1.8,5.5C227.2,398,227.5,398.6,228,398.8z"/>
<path d="M356,113.8c-9.5,0.5-10.5,2-10.5,2s-2.5-2.8-13.2,1.8c0,0-6.7-4-26.5,3c-7.8,2.8-14.2-2.5-19,0.5c0,0-5.1-2.7-15,13
	c0,0-7,1-7.2,7.8c0,0-3.6-1.2-3.2,7c-1.6-0.6-3.3-1.1-4.9-1.6v-1.7H238v1.9c-1.8,0.5-3.9,1.2-6.1,2.1c0,0,0,0,0,0
	c0.6-9-3.1-7.8-3.1-7.8c-0.2-6.8-7.2-7.8-7.2-7.8c-9.9-15.7-15-13-15-13c-4.8-3-11.2,2.2-19-0.5c-19.8-7-26.5-3-26.5-3
	c-10.8-4.5-13.2-1.8-13.2-1.8s-1-1.5-10.5-2s-6,1.8-5.8,4.8s15.5,2,15.5,2c0.2,4,4.2,3.5,4.2,3.5l11.2-1.2
	c-0.5,6.8,41.8,3.5,41.8,3.5c0.2,5.8,12,10,12,10c-0.5,5,1.5,5,1.5,5s3.8-2,4.8,2.2s-7.5,10-7.5,10l3.3,2.6
	c-1.2,0.7-2.4,1.4-3.6,2.2c-1.2,3.3-1.5,6.8,0,8.6c1.8,2.1,6.7,2.1,13.6,0c3.2-1,5.9-1.9,8-2.6c11.2-3.7,11.9-3.7,23,0
	c1.6,0.5,3.4,1.2,5.6,1.8c7.1,2.3,12.3,2.2,14.8-0.4c1.1-1.2,1.7-3.1,1.7-5.2c-2-1.6-4.1-3.2-6.3-4.6l3.1-2.4c0,0-8.5-5.8-7.5-10
	s4.8-2.2,4.8-2.2s2,0,1.5-5c0,0,11.8-4.2,12-10c0,0,42.2,3.2,41.8-3.5L342,124c0,0,4,0.5,4.2-3.5c0,0,15.2,1,15.5-2
	S365.5,113.2,356,113.8z"/>
<path d="M305,186.5c-1.3-1.9-3-4.2-5.1-6.9c1-0.9,7.3-7,7.1-11.6c-0.2-5-4.8,4.2-10.2,5.9c-0.5,0.2-0.9,0.3-1.2,0.5
	c-2.6-3-5.5-6.1-8.8-9.2c-0.6,1.8-1.5,3.4-2.7,4.7c-2.9,3-8.9,5.8-21,1.9c-2.2-0.7-4-1.3-5.6-1.9c-9.6-3.2-9.5-3.2-19.2,0
	c-2.1,0.7-4.8,1.6-8.1,2.6c-4,1.3-7.5,1.9-10.5,1.9c-4.2,0-7.3-1.2-9.4-3.7c-1.8-2.1-2.4-4.7-2.4-7.5c-2.9,2.3-5.9,4.8-8.8,7.7
	c-0.9,0.9-1.8,1.8-2.6,2.7c-4.8-2.6-8.4-9.7-8.7-5.2c-0.2,3.2,2.9,7.2,5.1,9.6c-7.8,10.5-11.1,22-12.4,29.3
	c3.9-3.1,7.9-8.9,10.2-9.3c1.8-0.3,3.5,0.2,6.2,1c6,1.8,18.5,5.6,50.7,5.6c33.4,0,41.4-3.6,45.3-5.4c1.5-0.7,2.8-1.3,4.6-1.3
	c3,0,8.9,6.3,14.4,9.8C310.4,200.5,308.2,191,305,186.5z"/>
<path d="M323.5,211.7c-0.5-2.5-10,1.8-10,1.8v0.9c-0.1-0.5-0.1-0.9-0.2-1.4c-6.9-4.8-13.9-9-15.9-9.1c-0.5,0-0.9,0.2-2.1,0.7
	c-4.2,1.9-13,5.9-47.8,5.9c-33.2,0-46.2-4-52.5-5.9c-1.4-0.4-2.9-0.9-3.3-0.8c-1.6,0.4-6.9,4.4-12.1,8.9c0,0,0,0.1,0,0.1
	c-2.9-1.1-7.1-2.3-7.4-0.7c-0.3,1.7,4.6,4.6,7.7,6.1c-0.6,3-1.1,12-1.4,17.5c1.7-2.4,3.4-9.3,4.8-10c2.5-1.3,7.5-0.7,21.9,1.3
	c12.5,1.7,28.2,3.9,41.8,3.9c14.5,0,30.7-2.4,42.6-4.2c12.2-1.8,16.1-2.4,18.2-1.3c1.6,0.8,4.4,8.8,7.3,12.2
	c-0.2-4.7-0.6-12.5-1.1-18.9C316,217.8,324,213.9,323.5,211.7z"/>
<path d="M326,260.5c-4.7,0.8-10,0.3-11.9,0.1c-2.7-1.6-5.6-3.2-8.2-4.1c-2.1-0.7-8.4,0.7-15.1,2.3c-11,2.5-26.1,6-44,6
	c-19.5,0-36.8-3.7-48.2-6.1c-5.2-1.1-10.7-2.3-12-2c-1.7,0.4-4.2,1.9-6.5,3.6c-2.4,0.2-6.7,0.4-10.5-0.2c-5.8-1-16.2,1.5,0,4.5
	c3.4,0.6,5.9,1.2,7.7,1.7c0,3.2-0.1,6.4-0.1,9.5c2.4-2.3,5.4-4.1,9.1-4.4c3.5-0.3,6.6,0.9,11,2.6c7.9,3.1,21.2,8.2,49.9,8.2
	c27.5,0,36.9-4.3,43.8-7.4c4-1.8,7.5-3.4,12.8-3.4c4.3,0,8.4,1.6,11.9,4c-0.1-2.6-0.1-5.2-0.2-7.6c1.7-0.7,4.8-1.6,10.3-2.6
	C342.3,262,331.8,259.5,326,260.5z"/>
<path d="M337.5,304c-0.4-1.6-14.6-2.5-21-2.9c0-0.1,0-0.1,0-0.1c-2.2-0.3-4.5-0.5-6.8-0.5c-3.5,0-8.3,1.5-14.5,3.5
	c-11.3,3.6-26.9,8.5-47.9,8.5c-22,0-33.5-2.1-45.7-8.3c-7.8-4-18.7-3.9-24.2-3.5c0,0,0,0.1,0,0.1c-6.9,0.4-18.8,1.3-19.2,2.8
	c-0.3,1.3,11.2,2.7,19.3,3.5c0,0.5,0.1,6.6,0.9,15.1c7.1-0.9,20-1.2,34,4.6c19.1,7.9,57.3,5.6,72,0c10.6-4.1,23.6-4.9,31.1-5.1
	c0.4-3.6,0.7-7.7,1-12.5c0-0.4,0-0.9,0.1-1.4C324.5,306.9,337.9,305.4,337.5,304z"/>
<path d="M312.7,338.8c0.7-3.3,1.4-6.8,2-11.1c-7.1,0.2-18.9,1.1-28.2,4.7c-8.5,3.2-24.1,5.5-40.1,5.5c-13.3,0-26.8-1.6-36.4-5.6
	c-12.9-5.3-24.8-5-31.1-4.2c0.5,3.7,1,7.6,1.8,11.5c-5.6,1.4-26,6.6-25.8,9.4c0.2,2.5,19.3,1.2,28.1,0.4c0.3,1.2,0.7,2.3,1,3.4
	c5.4-3,14.9-5.4,31.2-3.6c30.5,3.5,36.2,3.5,68.4,0.5c10.3-1,18.3,0.1,24.6,2.1c0.5-1.1,0.9-2.2,1.3-3.1c7.4,0.7,29.9,2.5,30.1-0.2
	C340,345.4,315.1,339.4,312.7,338.8z"/>
<path d="M295.3,378.3c0.4-0.5,0.7-1,1.1-1.6c-4.1-3-8.9-5.9-12.7-6.3c-3.4-0.4-6.2,0.9-10,2.5c-5.5,2.4-13,5.6-26.3,5.8
	c-15.2,0.2-24.9-3.6-31.3-6.1c-3-1.2-5.3-2.1-7-2.1c-2.9-0.1-7.1,3-10.2,5.9c0.3,0.3,0.5,0.5,0.8,0.8c-5.9,3.3-21.5,12.2-20.7,16.3
	c0.5,2.5,21.7-5.5,21.7-8.8c0-2,1.5-3.3,2.6-4c0.7,0.6,1.4,1.3,2,1.9c0.6,0.6,1.6,0.5,2.2-0.2c2.4-2.9,5.6-6.3,8.1-6.7
	c2.4-0.4,4.3-0.7,5.3,0.8c0.6,0.8,0.6,1.8,0,3c-0.7,1.4-2.5,2-4.2,2.2l-0.7,9.1c0,0.5,0.2,1,0.6,1.4c2.2,1.6,4.4,3,6.6,4.3
	c2.7-9.8,4.6-10.3,5.4-10.6c1.5-0.4,3.3-0.9,12.6,16.1c0.2,0.4,0.7,0.7,1.2,0.8c1.3,0.1,2.5,0.2,3.8,0.2c1.6,0,3.3-0.1,4.9-0.2
	c0.6-0.1,1.1-0.4,1.4-0.9c9.8-17.8,11.7-17.3,13.5-16.9c1,0.3,2.9,0.8,5.7,10.7c0.2,0.7,0.9,1,1.5,0.7c1.7-0.9,3.4-1.8,5.1-2.8
	c0.4-0.2,0.6-0.6,0.5-1l-0.7-10.3c-1.6-0.2-3.4-0.8-4.2-2.2c-0.6-1.2-0.6-2.2,0-3c1-1.4,2.9-1.1,5.3-0.8c3.2,0.5,7.7,6,9.9,9
	c1-1,2-2.1,2.9-3.1c1.2,0.7,2.7,2.1,2.7,4.1c0,3.2,21.2,11.2,21.7,8.8C317.6,390.8,300.6,381.2,295.3,378.3z"/>
</svg>
