<?xml version="1.0" encoding="utf-8"?>
<!-- Generator: Adobe Illustrator 22.1.0, SVG Export Plug-In . SVG Version: 6.00 Build 0)  -->
<svg version="1.1" id="Layer_1" xmlns="http://www.w3.org/2000/svg" xmlns:xlink="http://www.w3.org/1999/xlink" x="0px" y="0px"
	 viewBox="0 0 500 500" style="enable-background:new 0 0 500 500;" xml:space="preserve">
<path d="M366.3,259.3c0,0-9-3.7-21.3,3.3s-12.4-4.2-32-2c-6,0.7-10-7-27.7-7c0,0-3-6,5.3-6.3c8.3-0.3,21.7-0.7,26.3-3
	c0,0,10.3-18,17.3-22.7c7-4.7,5.3-24,7.7-31s15-25,16.7-37c1.7-12,27-35.7,27-35.7s-27,13.3-35,32.7c0,0-14.7,1.7-17.3,45.3
	c0,0-10.7,7-11.7,29.3c0,0-20,11.3-34.7,13.3s13.3-13.7,19-33.7c0,0,3.3-19,1-29c0,0-2-48.3-22.7-77C263.7,70.3,259,75,259,75
	s-7,3.3,5,6c12,2.7,30.7,58,32.7,92.7c0,0-5.1,11.1,1.3,23.3c0,0-12.3,14-16.3,23.7c-4,9.7-5,5-6.7,9.3c0,0-0.6-3.4-2.7-5
	c0,0,11.3-8,12-22.3c0.7-14.3-10.6-6.7-7.7,3.3c3,10-8.3,13.7-8.3,13.7s-9.3-13.7-20,0.3c0,0-6.3-3.7-7.3-7c-1-3.3,5.3-12,2.2-16
	c-3.2-4-8.8-1.3-7.8,16.3l10,10l-4.8,9.2c0,0-3.5-5.8-9.2-5.8c-5.7,0-3.7-6.3-6.7-8.7c-3-2.3-16-9.3-16-9.3s4.3-15.7,0-24.7
	c-4.3-9-12.3-78.7,8.3-99.7c0,0,1.7-1.3,1.7-4s-20-5.7-26,73.3c0,0,0,22.3,4.3,29.7c0,0-2,16,3.3,25c5.3,9,15,24.3,30,28.7
	c0,0-4.3,1.3-7.3,4.3h-30.3c0,0-10.3-17-22-18.3c0,0-15-19-17-24s-12.3-12.7-22-13c0,0-29-15.3-43-16c0,0,25.7,14,37.7,22
	c0,0,10,13.5,23.7,17.7c0,0,12.3,13.7,16.7,23.7c4.3,10,15.7,12.7,17.3,13s15.7,9.3,15.7,9.3s12.7,1,27.7-7.7c0,0,10.7-2,2,4.7
	c0,0-8.3,1.7-13.3,4.7c0,0-10-0.7-13.3,8.3c0,0-12-0.7-18.7,2.3h-14.7c0,0-9.7-4.3-19.7-1.7c0,0-15-4.2-18-5.7
	c-6.7-3.3-9.3-0.7-10,0.7c-0.7,1.3,2.7,7.7,29.7,10.7c0,0,3.8,4,13.2,2.7c9.4-1.3,31.4,0.3,31.4,0.3s3.7,0.1,7.3-2.6
	c0,0,10.7,0.3,14.7-5c0,0,9.7-1.7,13.3-6.3c0,0,2.7,3.7,4.7,4.3c0,0-9.7,3.2-12.3,9.6c0,0-22.1,7.3-30.3,20.1c0,0-8,11-8.3,27
	c0,0-14,9.7-7,83.7c0,0,2.3,15.3,9,23c6.7,7.7,5-4.7,1.3-8.3c-3.7-3.7-10.7-34.7-4.7-57s8-36,8-36s9.7-8.3,8.3-27
	c0,0,10.7,1.7,23-15c0,0,4,53.3,21,67s35,13.3,48-31.3c0,0,2.3-10,3-16.3c0,0,2-2,2.7-18.7c0,0,13,13.7,25.7,17.3
	c0,0-1.7,9.7,7,24.3c0,0,1.7,26.3,3.3,33.7c1.7,7.3,4.7,14,3.3,31.3c-1.3,17.3-6,29.7-8,31.7s-7,8.9-0.3,6.8
	c6.7-2.1,17.3-33.5,15.7-68.5c-1.7-35-7.3-36.7-7.3-36.7s2.3-18-9.3-31.7C316,280.7,300,275,300,275s-9.3-9.3-17.3-12
	c0,0,15.7,4,19.3,3.3c0,0,2,5,12.7,3c0,0,4,5,18,0.3c14-4.7,19.3,0.3,25.7-0.3c6.3-0.7,7.3-4.3,16.3-6s23.3-9.7,23-13.3
	C397.3,246.3,382,253.3,366.3,259.3z M343.1,162.6c3.2-5.5,7.4-9,9.4-7.9c2,1.2,1,6.5-2.1,12c-3.2,5.5-7.4,9-9.4,7.9
	C339,173.5,339.9,168.1,343.1,162.6z M326.6,210.4c2.2-6,5.8-10.1,7.9-9.3c2.2,0.8,2.1,6.3-0.1,12.2c-2.2,6-5.8,10.1-7.9,9.3
	C324.3,221.9,324.3,216.4,326.6,210.4z M297.2,186.9c-0.7-4.7,0.6-8.8,2.8-9.1c2.2-0.3,4.6,3.3,5.2,8s-0.6,8.8-2.8,9.1
	C300.2,195.2,297.9,191.6,297.2,186.9z M288.6,215.6c2.6-3.5,5.8-5.5,7.2-4.4c1.4,1,0.5,4.7-2.1,8.2c-2.6,3.5-5.8,5.5-7.2,4.4
	C285.1,222.8,286.1,219.1,288.6,215.6z M204.2,205.5c-2.2,0-4-4.3-4-9.7s1.8-9.7,4-9.7c2.2,0,4,4.3,4,9.7S206.4,205.5,204.2,205.5z
	 M228.2,231.8c-1.2,1.3-4.9-0.1-8.4-3.1c-3.5-3-5.3-6.6-4.1-7.9c1.2-1.3,4.9,0.1,8.4,3.1C227.5,227,229.3,230.5,228.2,231.8z
	 M151.1,204.1c-1.4,1.8-6.6,0.2-11.6-3.7s-8-8.5-6.6-10.3s6.6-0.2,11.6,3.7C149.6,197.7,152.5,202.3,151.1,204.1z M187.8,242.7
	c-1.5,1.7-6.6-0.3-11.4-4.5c-4.8-4.2-7.4-9-5.9-10.7c1.5-1.7,6.6,0.3,11.4,4.5C186.7,236.1,189.3,240.9,187.8,242.7z M159.9,272.2
	c-2.7,0-4.9-1-4.9-2.2c0-1.2,2.2-2.2,4.9-2.2s4.9,1,4.9,2.2C164.8,271.2,162.6,272.2,159.9,272.2z M194.1,272.8
	c-3.7,0-6.8-1.1-6.8-2.5s3-2.5,6.8-2.5c3.7,0,6.8,1.1,6.8,2.5S197.8,272.8,194.1,272.8z M224.1,264c-2.7,1.1-5.5,0.4-6.4-1.6
	s0.6-4.5,3.3-5.7s5.5-0.4,6.4,1.6C228.2,260.3,226.8,262.9,224.1,264z M184.4,353c-0.7,3.8-2.6,6.7-4.2,6.4
	c-1.6-0.3-2.2-3.7-1.5-7.5c0.7-3.8,2.6-6.7,4.2-6.4C184.5,345.8,185.1,349.2,184.4,353z M196,313.9c-1.2,5.1-3.7,8.9-5.5,8.5
	c-1.8-0.4-2.4-4.9-1.2-10c1.2-5.1,3.7-8.9,5.5-8.5C196.7,304.3,197.2,308.8,196,313.9z M214.9,289.1c-1.5,1.5-3.7,1.8-4.9,0.6
	c-1.2-1.2-0.9-3.4,0.6-4.9c1.5-1.5,3.7-1.8,4.9-0.6C216.7,285.4,216.4,287.6,214.9,289.1z M338.9,348.7c1.6-0.1,3.1,2.9,3.4,6.8
	c0.3,3.9-0.7,7.2-2.3,7.3c-1.6,0.1-3.1-2.9-3.4-6.8C336.3,352.1,337.3,348.8,338.9,348.7z M327.2,304c1.8-0.5,4.4,3.2,5.9,8.2
	c1.4,5.1,1.1,9.6-0.7,10.1c-1.8,0.5-4.4-3.2-5.9-8.2C325.1,309,325.4,304.5,327.2,304z M306.4,284.5c1-1.3,3.3-1.4,5-0.1
	c1.7,1.3,2.2,3.5,1.2,4.8c-1,1.3-3.3,1.4-5,0.1C305.9,288.1,305.4,285.9,306.4,284.5z M288.7,281.7c8,10.3,2.7,21.3,2.7,21.3
	c-27,35.7-60.3,4-60.3,4c-2.3-9.7,0-23.3,0-23.3C262.3,307,288.7,281.7,288.7,281.7z M300.3,261.6c-0.5,2.1-3.2,3.3-6,2.6
	s-4.7-2.9-4.2-5c0.5-2.1,3.2-3.3,6-2.6C298.9,257.2,300.8,259.5,300.3,261.6z M323,269.1c-3.7,0-6.8-1.1-6.8-2.5
	c0-1.4,3-2.5,6.8-2.5s6.8,1.1,6.8,2.5C329.8,268,326.8,269.1,323,269.1z M358.5,266.4c-2.7,0.2-5-0.6-5.1-1.9s2-2.4,4.7-2.6
	s5,0.6,5.1,1.9C363.3,265.1,361.2,266.2,358.5,266.4z"/>
</svg>
